<svg width="1000" height="50" viewBox="0 0 1000 50" fill="none" preserveAspectRatio="none" xmlns="http://www.w3.org/2000/svg">
<path opacity="0.1" d="M0 35C0 35 55.5 0 250 0C444.5 0 475.5 50 699 50C922.5 50 1000 0 1000 0H0V35Z" fill="black"/>
<path opacity="0.3" d="M1000 35C1000 35 897.5 9.5 703 9.5C508.5 9.5 316 26 206 26C96 26 0 0 0 0H1000V35Z" fill="black"/>
<path opacity="0.3" d="M1000 19C1000 19 1002 35 807.5 35C613 35 530.5 35 402.5 35C274.5 35 0 0 0 0H1000V19Z" fill="black"/>
<path d="M250 0C179.196 0 126.812 4.63816 88.8199 10.5376C36.3765 4.63816 0 0 0 0H250Z" fill="black"/>
<path d="M1000 0H250C327.618 0 379.198 7.96259 427.365 17.5326C512.4 13.4813 607.459 9.5 703 9.5C808.924 9.5 887.561 17.0629 937.218 23.9512C981.694 11.8104 1000 0 1000 0Z" fill="black"/>
</svg>
